HIERARCHY
ROOT Hips
{
	OFFSET 0.000000 0.000000 0.000000
	CHANNELS 6 Xposition Yposition Zposition Xrotation Yrotation Zrotation
	JOINT LeftUpLeg
	{
		OFFSET 3.102150 0.000000 0.000000
		CHANNELS 6 Xposition Yposition Zposition Xrotation Yrotation Zrotation
		JOINT LeftLeg
		{
			OFFSET 0.000000 -0.000001 -16.833309
			CHANNELS 6 Xposition Yposition Zposition Xrotation Yrotation Zrotation
			JOINT LeftFoot
			{
				OFFSET 0.000000 -0.000001 -15.538792
				CHANNELS 6 Xposition Yposition Zposition Xrotation Yrotation Zrotation
				JOINT LeftToeBase
				{
					OFFSET 0.000000 -5.872970 -1.573662
					CHANNELS 6 Xposition Yposition Zposition Xrotation Yrotation Zrotation
					End Site
					{
						OFFSET 0.000000 -2.952750 0.000000
					}
				}
			}
		}
	}
	JOINT RightUpLeg
	{
		OFFSET -3.102150 0.000000 0.000000
		CHANNELS 6 Xposition Yposition Zposition Xrotation Yrotation Zrotation
		JOINT RightLeg
		{
			OFFSET 0.000000 -0.000001 -16.833309
			CHANNELS 6 Xposition Yposition Zposition Xrotation Yrotation Zrotation
			JOINT RightFoot
			{
				OFFSET 0.000000 -0.000001 -15.538792
				CHANNELS 6 Xposition Yposition Zposition Xrotation Yrotation Zrotation
				JOINT RightToeBase
				{
					OFFSET 0.000000 -5.872970 -1.573662
					CHANNELS 6 Xposition Yposition Zposition Xrotation Yrotation Zrotation
					End Site
					{
						OFFSET 0.000000 -2.952750 0.000000
					}
				}
			}
		}
	}
	JOINT Spine
	{
		OFFSET 0.000000 0.000000 0.039370
		CHANNELS 6 Xposition Yposition Zposition Xrotation Yrotation Zrotation
		JOINT Spine1
		{
			OFFSET 0.000000 0.000001 8.310460
			CHANNELS 6 Xposition Yposition Zposition Xrotation Yrotation Zrotation
			JOINT Neck
			{
				OFFSET 0.000000 0.000000 6.254630
				CHANNELS 6 Xposition Yposition Zposition Xrotation Yrotation Zrotation
				JOINT Head
				{
					OFFSET 0.000000 0.000001 8.608170
					CHANNELS 6 Xposition Yposition Zposition Xrotation Yrotation Zrotation
					End Site
					{
						OFFSET 0.000000 0.000000 4.527550
					}
				}
			}
			JOINT LeftShoulder
			{
				OFFSET 0.000000 0.000000 6.254630
				CHANNELS 6 Xposition Yposition Zposition Xrotation Yrotation Zrotation
				JOINT LeftArm
				{
					OFFSET 7.448570 -0.000000 -0.000030
					CHANNELS 6 Xposition Yposition Zposition Xrotation Yrotation Zrotation
					JOINT LeftForeArm
					{
						OFFSET 10.735449 -0.000000 -0.000040
						CHANNELS 6 Xposition Yposition Zposition Xrotation Yrotation Zrotation
						JOINT LeftHand
						{
							OFFSET 10.158400 -0.000000 -0.000040
							CHANNELS 6 Xposition Yposition Zposition Xrotation Yrotation Zrotation
							JOINT LeftHandThumb
							{
								OFFSET 0.000000 0.000000 0.000000
								CHANNELS 6 Xposition Yposition Zposition Xrotation Yrotation Zrotation
								End Site
								{
									OFFSET 0.000000 -3.937000 0.000000
								}
							}
							JOINT L_Wrist_End
							{
								OFFSET 3.937000 -0.000000 -0.000010
								CHANNELS 6 Xposition Yposition Zposition Xrotation Yrotation Zrotation
								End Site
								{
									OFFSET 0.000000 0.000000 0.100000
								}
							}
						}
					}
				}
			}
			JOINT RightShoulder
			{
				OFFSET 0.000000 0.000000 6.254630
				CHANNELS 6 Xposition Yposition Zposition Xrotation Yrotation Zrotation
				JOINT RightArm
				{
					OFFSET -7.448570 -0.000000 -0.000030
					CHANNELS 6 Xposition Yposition Zposition Xrotation Yrotation Zrotation
					JOINT RightForeArm
					{
						OFFSET -10.735449 -0.000000 -0.000040
						CHANNELS 6 Xposition Yposition Zposition Xrotation Yrotation Zrotation
						JOINT RightHand
						{
							OFFSET -10.158400 -0.000000 -0.000040
							CHANNELS 6 Xposition Yposition Zposition Xrotation Yrotation Zrotation
							JOINT RightHandThumb
							{
								OFFSET 0.000000 0.000000 0.000000
								CHANNELS 6 Xposition Yposition Zposition Xrotation Yrotation Zrotation
								End Site
								{
									OFFSET 0.000000 -3.937000 0.000000
								}
							}
							JOINT R_Wrist_End
							{
								OFFSET -5.393688 -0.000000 -0.000020
								CHANNELS 6 Xposition Yposition Zposition Xrotation Yrotation Zrotation
								End Site
								{
									OFFSET 0.000000 0.000000 0.100000
								}
							}
						}
					}
				}
			}
		}
	}
}
MOTION
Frames: 4
Frame Time: 0.041667
-34.211399 21.347403 32.676697 -10.877117 -18.791980 456.949108 3.102151 0.000003 0.000005 11.615775 -8.850192 -14.187186 0.000002 -0.000004 -16.833307 39.754197 0.000000 -0.000000 -0.000002 0.000001 -15.538792 -24.457362 18.539030 -20.120028 0.000002 -5.872965 -1.573663 -4.110396 -0.000001 -0.000001 -3.102148 -0.000002 0.000006 -15.954379 -15.461632 15.484155 -0.000001 0.000000 -16.833309 22.247598 0.000000 -0.000000 -0.000003 -0.000002 -15.538789 -6.101412 -13.104144 10.723319 0.000000 -5.872971 -1.573667 1.585604 -0.000001 0.000008 0.000001 0.000000 0.039376 -6.692010 4.115972 -3.255104 -0.000003 -0.000001 8.310458 5.100396 -2.871862 -6.303648 -0.000002 -0.000003 6.254627 28.054782 -4.614070 -3.052902 -0.000001 -0.000003 8.608172 -16.311240 1.411121 -2.133446 -0.000002 -0.000003 6.254627 9.356159 -24.935665 -18.467064 7.448573 -0.000004 -0.000026 157.167420 149.616714 -210.056498 10.735447 -0.000002 -0.000048 -0.000279 0.000251 -102.509296 10.158399 -0.000001 -0.000041 -8.069267 -12.034057 9.184428 0.000000 -0.000002 -0.000002 0.000001 0.000001 -0.000002 3.937000 -0.000002 -0.000006 0.000000 -0.000001 -0.000002 -0.000001 -0.000002 6.254626 28.489090 17.940358 -6.719095 -7.448572 0.000000 -0.000032 289.353150 -103.188114 265.213841 -10.735442 -0.000000 -0.000040 -0.000002 0.000004 11.760996 -10.158398 -0.000007 -0.000039 -20.397610 -27.144864 11.488302 0.000004 0.000001 -0.000002 0.000001 -0.000000 0.000000 -5.393684 -0.000000 -0.000022 -0.000002 0.000000 0.000000 
-34.031898 21.501202 32.731995 -9.972605 -18.297257 459.336232 3.102152 -0.000004 -0.000001 11.115165 -8.986015 -12.865663 -0.000002 -0.000005 -16.833311 39.307100 -0.000000 -0.000000 0.000001 -0.000001 -15.538794 -23.609934 18.244275 -21.426097 0.000002 -5.872977 -1.573662 -4.527996 0.000002 0.000002 -3.102151 -0.000001 0.000001 -15.914293 -15.189190 15.709099 -0.000001 -0.000000 -16.833313 21.906498 -0.000000 -0.000004 0.000000 -0.000004 -15.538790 -6.322857 -12.544734 10.964281 -0.000001 -5.872972 -1.573662 1.323403 0.000000 0.000002 0.000000 -0.000002 0.039370 -6.460988 3.452000 -2.725149 -0.000000 0.000002 8.310457 4.296941 -1.529432 -5.763760 0.000001 0.000000 6.254626 27.767094 -4.400774 -2.423950 -0.000000 0.000002 8.608165 -16.235927 2.099545 -2.342774 0.000000 0.000001 6.254626 10.900442 -25.028257 -16.898663 7.448570 -0.000002 -0.000025 157.653511 149.660742 -211.647728 10.735447 0.000002 -0.000036 -0.000278 0.000258 -101.606099 10.158406 0.000001 -0.000038 -7.347902 -13.162435 8.745698 0.000001 0.000000 -0.000002 -0.000001 -0.000003 0.000002 3.937000 -0.000001 -0.000011 0.000000 -0.000001 0.000000 0.000001 0.000000 6.254625 28.537657 18.050798 -6.856465 -7.448570 0.000001 -0.000031 287.548888 -104.367777 263.171888 -10.735453 0.000006 -0.000042 -0.000001 0.000000 10.157003 -10.158400 -0.000005 -0.000043 -20.081735 -28.903936 9.500659 -0.000002 0.000004 -0.000000 0.000005 0.000000 0.000000 -5.393688 0.000004 -0.000021 0.000003 -0.000000 -0.000000 
-33.859600 21.656603 32.794895 -9.041214 -17.882873 462.161526 3.102151 -0.000003 0.000000 10.591355 -9.124292 -11.804373 -0.000002 0.000002 -16.833307 39.025099 -0.000000 0.000000 0.000000 -0.000004 -15.538791 -22.574265 18.226915 -22.200642 -0.000001 -5.872970 -1.573662 -5.057797 0.000004 -0.000002 -3.102149 0.000001 0.000001 -15.859629 -14.654325 15.652992 0.000002 -0.000000 -16.833307 21.427502 0.000000 0.000001 0.000001 -0.000005 -15.538792 -6.257557 -12.156394 10.981095 0.000003 -5.872972 -1.573660 0.974302 -0.000000 0.000007 0.000001 -0.000001 0.039372 -6.473317 3.144002 -2.503271 0.000002 0.000001 8.310459 4.274924 -0.722065 -5.496236 0.000002 -0.000006 6.254632 27.366201 -3.887258 -1.507169 0.000002 -0.000003 8.608172 -16.272246 2.777073 -2.762647 0.000002 -0.000005 6.254632 10.132082 -25.140927 -16.726698 7.448570 -0.000002 -0.000035 159.403720 148.563568 -211.565956 10.735452 -0.000004 -0.000048 -0.000181 0.000251 -101.188597 10.158400 -0.000002 -0.000041 -6.759228 -12.932690 8.104309 0.000004 -0.000004 0.000006 0.000001 0.000001 0.000000 3.937001 -0.000003 -0.000006 0.000000 0.000003 0.000000 0.000003 -0.000005 6.254631 28.401306 18.375586 -6.838004 -7.448570 -0.000000 -0.000030 285.498738 -105.033290 261.095592 -10.735452 0.000004 -0.000038 -0.000001 -0.000002 8.735500 -10.158405 0.000001 -0.000042 -20.608100 -30.788823 7.655988 -0.000002 -0.000004 0.000001 0.000000 0.000000 0.000001 -5.393688 -0.000001 -0.000019 -0.000001 0.000000 -0.000000 
-33.696301 21.813803 32.855198 -8.102910 -17.418154 465.036817 3.102150 -0.000001 0.000000 10.033982 -9.143483 -10.878583 -0.000000 -0.000003 -16.833309 38.887395 -0.000000 -0.000000 0.000003 0.000000 -15.538795 -21.629911 18.331355 -22.393602 -0.000001 -5.872972 -1.573663 -5.700499 -0.000001 -0.000002 -3.102149 0.000000 0.000003 -15.890715 -13.947172 15.543190 0.000001 -0.000001 -16.833317 20.971498 0.000000 -0.000002 0.000002 0.000001 -15.538790 -6.225165 -11.704552 10.874185 -0.000003 -5.872971 -1.573661 0.911702 0.000000 -0.000001 0.000000 -0.000002 0.039370 -6.403561 2.925920 -2.360082 -0.000001 0.000001 8.310460 4.126586 -0.008763 -5.303301 0.000000 -0.000005 6.254627 27.029903 -3.595125 -0.932834 -0.000002 0.000002 8.608169 -16.212282 3.735298 -2.846853 0.000000 -0.000004 6.254628 9.852468 -25.146434 -16.413132 7.448570 0.000003 -0.000027 160.844302 147.554762 -211.570123 10.735447 -0.000003 -0.000031 -0.000281 0.000252 -100.617395 10.158401 -0.000000 -0.000042 -6.436415 -12.686696 7.924368 0.000000 0.000001 -0.000005 -0.000003 0.000001 0.000002 3.937001 0.000000 -0.000015 -0.000001 0.000002 0.000002 0.000001 -0.000005 6.254627 28.382530 18.643944 -6.884485 -7.448565 -0.000003 -0.000033 282.419361 -104.850350 257.909227 -10.735451 0.000002 -0.000041 -0.000002 0.000002 7.769600 -10.158401 0.000000 -0.000041 -21.065430 -31.950126 6.108549 -0.000002 -0.000006 0.000000 0.000003 0.000000 0.000000 -5.393684 -0.000005 -0.000021 -0.000000 0.000000 0.000000 
